<?xml version="1.0" standalone="no"?>
<!DOCTYPE svg PUBLIC "-//W3C//DTD SVG 20010904//EN"
 "http://www.w3.org/TR/2001/REC-SVG-20010904/DTD/svg10.dtd">
<svg version="1.0" xmlns="http://www.w3.org/2000/svg"
 width="1500.000000pt" height="416.000000pt" viewBox="0 0 1500.000000 416.000000"
 preserveAspectRatio="xMidYMid meet">

<g transform="translate(0.000000,416.000000) scale(0.100000,-0.100000)"
fill="#FE9E0D" stroke="none">
<path d="M14432 3827 c-24 -12 -45 -30 -47 -42 -3 -11 -21 -96 -41 -190 -80
-383 -382 -1623 -404 -1665 -5 -10 -21 -21 -36 -24 -38 -10 -75 -37 -67 -50 3
-6 3 -8 -2 -4 -11 10 -47 -11 -40 -23 4 -5 3 -9 -2 -8 -17 4 -43 -14 -36 -25
3 -6 3 -8 -2 -4 -11 11 -47 -11 -39 -24 4 -6 3 -8 -3 -5 -6 4 -19 -1 -29 -9
-10 -9 -12 -12 -4 -8 9 4 12 3 7 -2 -5 -5 -16 -9 -25 -9 -9 0 -17 -6 -17 -14
0 -8 -7 -16 -15 -18 -13 -4 -13 -3 0 7 23 17 3 9 -86 -37 -72 -37 -191 -72
-179 -53 3 5 -2 11 -11 14 -8 3 -25 27 -37 53 -18 42 -21 66 -21 183 1 74 8
188 17 253 20 140 16 157 -42 157 -41 0 -108 -38 -103 -59 1 -7 -2 -10 -7 -7
-12 8 -53 -43 -44 -57 3 -6 1 -7 -5 -3 -14 8 -36 -30 -26 -46 5 -7 3 -8 -6 -3
-10 6 -12 4 -7 -9 5 -11 3 -15 -5 -10 -8 5 -9 2 -5 -10 4 -9 3 -15 -2 -12 -12
8 -23 -22 -14 -37 3 -7 3 -9 -2 -5 -7 7 -75 -95 -79 -119 -1 -7 -6 -16 -11
-20 -4 -4 -5 -1 -1 7 4 8 1 6 -8 -4 -8 -10 -13 -23 -9 -29 3 -6 1 -7 -5 -3
-13 8 -54 -43 -45 -57 3 -5 2 -7 -4 -4 -5 4 -23 -8 -39 -25 -16 -17 -22 -27
-14 -23 9 5 12 5 7 -1 -5 -5 -12 -9 -15 -9 -16 -1 -32 -17 -26 -27 5 -7 1 -9
-9 -5 -9 3 -21 -1 -29 -11 -11 -13 -11 -15 2 -7 9 5 12 5 7 -1 -5 -5 -13 -10
-18 -10 -5 -1 -14 -2 -20 -3 -5 0 -8 -5 -4 -10 3 -5 0 -13 -6 -17 -8 -4 -9 -3
-5 4 9 15 1 15 -23 0 -48 -30 -74 20 -74 147 0 110 11 173 69 386 47 175 51
208 32 227 -18 18 -77 14 -123 -7 l-40 -18 -48 -169 c-26 -93 -52 -196 -59
-229 -6 -33 -16 -63 -22 -67 -6 -4 -11 -13 -11 -20 -1 -7 -6 -12 -11 -11 -6 1
-26 -12 -45 -28 -19 -17 -28 -27 -20 -23 9 5 12 3 7 -5 -4 -6 -11 -9 -15 -7
-4 3 -23 -8 -42 -25 -19 -17 -28 -27 -20 -23 9 5 12 3 7 -5 -4 -6 -11 -9 -15
-6 -5 2 -17 -3 -27 -11 -10 -9 -13 -12 -5 -8 10 5 12 3 7 -5 -5 -7 -10 -10
-13 -7 -10 10 -44 -15 -37 -26 4 -6 3 -8 -3 -5 -6 4 -19 -1 -29 -9 -10 -9 -13
-12 -5 -8 9 5 12 3 7 -5 -4 -6 -11 -9 -16 -6 -14 9 -51 -15 -44 -27 4 -7 3 -8
-4 -4 -6 4 -24 0 -39 -9 -16 -9 -19 -13 -8 -10 11 3 16 3 12 -2 -20 -19 -223
-22 -211 -2 6 10 -22 30 -30 21 -4 -4 -7 -2 -5 3 1 6 -8 31 -20 58 -26 55 -41
137 -41 220 0 52 4 63 34 100 19 23 34 46 34 50 0 5 4 12 8 15 4 4 4 0 0 -8
-4 -8 6 1 22 20 17 19 28 38 25 43 -2 4 1 6 9 5 7 -2 13 6 13 17 0 11 5 20 12
20 17 0 83 96 76 109 -3 6 -2 8 2 3 11 -9 46 43 38 56 -3 6 -2 7 3 4 13 -8
107 141 98 155 -5 7 -3 8 6 3 10 -6 12 -4 7 9 -4 9 -3 15 2 11 13 -8 104 162
95 176 -4 7 -3 9 3 6 13 -8 36 41 27 55 -4 6 -2 8 3 5 11 -7 81 140 143 296
60 154 130 439 130 532 0 51 -11 95 -23 88 -6 -3 -7 -1 -3 6 9 14 -2 53 -14
46 -4 -3 -7 3 -6 12 0 10 -7 17 -21 18 -13 1 -26 5 -30 10 -5 4 1 5 12 1 16
-6 18 -5 8 5 -15 15 -103 18 -147 6 -24 -7 -27 -10 -15 -18 11 -8 9 -9 -7 -5
-11 4 -29 -1 -40 -10 -10 -8 -13 -12 -5 -8 9 4 12 3 7 -4 -4 -6 -13 -9 -20 -6
-16 6 -89 -73 -81 -87 4 -5 1 -8 -7 -7 -7 2 -12 -5 -12 -14 1 -10 -3 -16 -10
-15 -6 1 -10 -6 -10 -15 1 -10 -3 -16 -10 -15 -6 1 -10 -6 -10 -15 1 -10 -3
-15 -9 -11 -6 4 -8 0 -4 -10 3 -9 1 -19 -5 -23 -7 -5 -8 -2 -3 6 6 9 4 11 -4
6 -7 -5 -10 -15 -7 -23 3 -8 2 -12 -2 -9 -12 7 -44 -52 -36 -66 4 -6 3 -8 -3
-5 -13 8 -36 -41 -27 -55 4 -6 2 -8 -3 -5 -6 4 -23 -22 -41 -61 -49 -112 -135
-345 -136 -374 -1 -14 -4 -24 -8 -22 -4 3 -23 -46 -43 -108 -76 -234 -175
-661 -191 -822 -5 -46 -13 -75 -25 -87 -12 -12 -14 -19 -6 -23 7 -3 2 -3 -10
0 -12 3 -35 -2 -50 -11 -15 -9 -19 -13 -8 -10 11 3 16 2 11 -2 -4 -4 -20 -9
-34 -10 -39 -2 -347 -110 -331 -116 8 -2 5 -3 -5 -1 -11 2 -90 -14 -176 -36
-233 -57 -389 -74 -585 -65 -88 4 -182 8 -210 8 -27 1 -41 3 -30 5 14 3 8 8
-25 18 -25 7 -52 11 -62 8 -9 -2 -19 0 -23 5 -4 7 1 9 12 5 10 -3 -11 10 -47
30 -62 35 -90 47 -60 25 10 -7 11 -9 2 -7 -8 2 -14 8 -14 13 0 14 -18 35 -30
35 -5 0 -6 -5 -2 -12 4 -7 3 -8 -5 -4 -6 4 -9 11 -6 15 6 11 -40 53 -49 44 -4
-5 -7 -3 -5 2 4 18 -13 45 -24 38 -5 -3 -7 -2 -4 4 3 5 -5 25 -18 44 -33 50
-52 100 -70 184 -55 267 38 618 245 926 35 52 63 99 63 106 0 7 3 10 7 8 10
-6 70 81 62 90 -4 5 -2 5 5 1 11 -6 37 26 38 47 0 4 5 7 10 8 18 1 35 21 28
32 -3 5 -1 7 4 4 13 -8 36 17 25 28 -4 5 -2 5 4 2 14 -8 37 17 26 27 -4 4 -2
6 3 4 14 -4 56 27 47 36 -4 4 -2 6 3 5 16 -6 74 34 68 45 -3 6 -3 8 2 4 11
-11 47 11 39 24 -4 6 -3 8 4 4 14 -9 63 14 55 27 -3 6 -1 7 5 3 14 -9 63 14
55 27 -3 6 -1 7 6 3 6 -4 27 -2 46 5 19 7 31 15 26 18 -5 4 14 8 42 10 98 8
262 3 252 -8 -6 -6 58 -56 68 -53 5 1 6 -1 3 -6 -7 -11 29 -64 38 -55 4 4 4 1
1 -8 -8 -21 49 -97 79 -105 37 -9 81 -1 78 14 -1 8 2 11 8 7 20 -12 23 28 6
81 -11 34 -21 52 -28 48 -6 -4 -8 -3 -5 4 9 14 -3 43 -14 36 -5 -3 -6 3 -2 12
4 11 2 15 -4 11 -6 -4 -10 1 -9 11 0 9 -4 16 -11 15 -7 -2 -10 3 -7 10 6 16
-71 91 -84 83 -6 -3 -14 -1 -18 5 -4 8 -3 9 4 5 7 -4 12 -5 12 -2 0 11 -76 43
-129 56 -92 22 -373 -7 -315 -32 14 -6 11 -7 -10 -3 -20 4 -50 -5 -107 -31
-43 -20 -76 -40 -74 -45 3 -4 0 -11 -6 -15 -8 -4 -9 -3 -5 4 11 19 -7 14 -34
-9 -14 -11 -18 -17 -10 -13 9 4 12 3 7 -2 -5 -5 -16 -9 -25 -9 -9 0 -17 -6
-17 -14 0 -8 -7 -16 -15 -18 -13 -4 -13 -3 0 6 8 6 11 11 5 11 -5 0 -28 -16
-50 -36 -22 -19 -34 -32 -26 -28 10 5 12 3 7 -5 -5 -7 -14 -10 -21 -7 -7 2
-26 -9 -41 -26 -16 -17 -23 -27 -15 -23 10 5 12 4 7 -4 -4 -6 -11 -9 -16 -6
-11 7 -32 -20 -22 -30 4 -5 2 -5 -4 -2 -14 8 -37 -17 -26 -28 4 -5 2 -5 -4 -2
-14 8 -37 -17 -26 -28 4 -5 2 -5 -4 -2 -14 8 -64 -44 -68 -69 -2 -11 -8 -19
-15 -19 -15 0 -42 -35 -36 -46 3 -4 0 -11 -6 -15 -8 -5 -10 -2 -5 7 4 8 1 5
-8 -5 -8 -10 -13 -23 -10 -28 3 -5 0 -7 -8 -6 -7 2 -12 -5 -12 -14 1 -10 -3
-16 -10 -15 -6 1 -10 -6 -10 -15 1 -10 -2 -16 -6 -13 -11 7 -42 -43 -35 -56 4
-5 1 -8 -7 -7 -7 2 -12 -5 -12 -14 1 -10 -3 -16 -10 -15 -6 1 -10 -6 -10 -15
1 -10 -3 -15 -9 -11 -6 4 -8 0 -4 -11 4 -10 3 -15 -3 -11 -12 8 -43 -52 -34
-67 4 -6 3 -8 -3 -5 -12 8 -56 -81 -47 -95 4 -6 2 -8 -4 -5 -22 15 -109 -238
-137 -402 -17 -97 -20 -294 -5 -372 17 -88 40 -160 50 -154 5 3 7 -1 4 -9 -8
-20 46 -117 60 -109 6 3 8 3 4 -2 -10 -10 31 -67 43 -59 5 3 8 0 7 -7 -2 -7 4
-14 12 -14 8 0 14 -6 13 -12 -3 -16 65 -65 79 -57 7 4 8 3 4 -4 -8 -14 30 -36
46 -26 7 4 8 3 4 -4 -8 -14 40 -36 56 -26 6 4 8 2 5 -3 -8 -13 83 -47 183 -69
98 -21 351 -29 465 -15 157 19 269 43 254 53 -10 6 -7 7 10 3 31 -9 246 45
229 58 -9 6 -7 7 6 3 26 -9 98 12 90 26 -4 7 -3 8 4 4 18 -11 96 15 80 27 -9
6 -8 7 5 3 24 -8 239 73 230 87 -3 6 -1 7 6 3 12 -8 82 14 76 23 -1 3 10 7 25
8 25 2 29 -2 35 -30 12 -60 27 -97 36 -92 5 4 6 -1 3 -9 -7 -20 14 -58 28 -50
6 4 8 3 5 -3 -8 -13 22 -55 34 -47 5 3 8 0 7 -7 -2 -6 19 -24 47 -38 43 -23
61 -26 145 -26 75 1 107 6 153 24 34 13 55 27 51 33 -4 6 -2 8 4 4 14 -9 63
14 55 27 -3 6 -1 7 5 3 15 -9 55 18 44 29 -4 5 -1 5 5 1 7 -4 37 11 70 35 60
43 90 69 64 54 -10 -6 -12 -4 -7 4 5 7 10 10 13 7 8 -7 64 34 59 43 -3 4 4 8
15 8 15 1 19 -5 19 -30 1 -45 33 -132 48 -129 6 1 11 -4 10 -10 -2 -7 3 -12
10 -10 8 1 11 -2 7 -8 -13 -21 66 -43 140 -38 76 5 190 51 178 72 -3 6 -3 8 2
4 12 -11 47 11 39 25 -4 7 -4 9 1 5 12 -11 47 11 39 25 -4 7 -3 9 1 4 12 -10
66 43 58 57 -3 6 -3 8 2 4 11 -10 37 11 29 23 -3 5 -1 8 4 7 14 -4 73 72 65
85 -3 6 -1 7 5 3 6 -3 16 3 22 14 19 36 27 21 33 -62 13 -202 98 -289 267
-275 78 7 163 34 153 49 -4 7 -1 8 6 4 16 -10 73 13 64 27 -3 5 -1 7 5 3 15
-9 63 15 55 28 -3 6 -3 8 2 4 16 -15 129 66 118 85 -3 7 -3 9 2 5 12 -11 47
11 39 25 -4 7 -4 9 1 5 11 -11 36 12 28 26 -3 6 -3 8 2 4 4 -4 14 -3 22 4 7 6
15 9 18 7 2 -3 -11 -65 -30 -139 -40 -157 -40 -154 -19 -174 27 -28 156 -13
138 16 -4 6 -3 8 3 5 6 -4 20 8 31 27 15 25 28 34 57 39 77 13 186 50 173 59
-9 6 -6 7 8 3 27 -7 146 43 137 58 -3 6 -1 7 5 3 16 -10 54 12 46 26 -4 7 -3
8 4 4 13 -8 55 17 47 27 -3 4 -2 5 1 2 12 -8 45 16 38 28 -4 7 -4 9 1 5 11
-10 47 11 40 23 -4 5 -3 8 2 7 14 -4 54 23 48 33 -4 5 -1 8 7 7 7 -2 12 3 10
10 -1 8 2 11 7 8 12 -8 53 49 43 58 -4 4 0 6 8 4 9 -2 14 4 14 14 -1 10 2 15
7 13 11 -8 41 53 33 67 -4 6 -3 8 4 4 13 -8 49 85 58 153 7 55 -2 125 -16 116
-4 -3 -6 5 -2 17 3 14 1 19 -6 14 -7 -4 -10 -2 -6 7 8 21 -78 95 -121 103 -84
15 -278 -23 -243 -49 9 -6 7 -7 -6 -3 -17 6 -106 -36 -106 -50 0 -3 6 -2 13 2
7 4 8 3 4 -2 -5 -5 -16 -9 -25 -9 -9 0 -17 -6 -17 -14 0 -8 -7 -16 -15 -18
-13 -4 -13 -3 0 6 9 7 10 11 3 11 -12 0 -28 -18 -28 -32 0 -5 -3 -8 -7 -8 -5
0 -13 0 -19 0 -6 0 -9 6 -6 13 8 21 181 760 236 1007 100 449 114 543 89 568
-18 18 -57 14 -106 -11z m102 5 c2 -4 -11 -6 -30 -4 -19 2 -34 6 -34 8 0 8 59
4 64 -4z m-99 -22 c-3 -5 -12 -10 -18 -10 -7 0 -6 4 3 10 19 12 23 12 15 0z
m-3657 -67 c-27 -2 -69 -2 -95 0 -27 2 -5 3 47 3 52 0 74 -1 48 -3z m133 -31
c-7 -2 -18 1 -23 6 -8 8 -4 9 13 5 13 -4 18 -8 10 -11z m1309 15 c0 -2 -12
-14 -27 -28 l-28 -24 24 28 c23 25 31 32 31 24z m-1765 -37 c-3 -5 -12 -10
-18 -10 -7 0 -6 4 3 10 19 12 23 12 15 0z m-60 -30 c-3 -5 -12 -10 -18 -10 -7
0 -6 4 3 10 19 12 23 12 15 0z m1981 -16 c10 -41 -3 -141 -31 -234 -14 -46
-23 -91 -20 -98 2 -7 1 -11 -4 -8 -11 7 -84 -192 -75 -206 4 -6 3 -8 -3 -5
-13 8 -36 -50 -26 -66 3 -5 2 -7 -4 -4 -14 9 -47 -68 -38 -85 5 -7 4 -9 0 -5
-11 10 -187 -342 -178 -357 3 -6 2 -8 -2 -3 -11 9 -57 -72 -48 -86 4 -6 1 -7
-7 -2 -10 6 -12 4 -6 -11 4 -10 4 -15 0 -11 -11 10 -36 -31 -28 -46 4 -6 4 -9
-1 -5 -11 10 -38 -29 -30 -42 4 -6 1 -9 -7 -8 -7 2 -12 -5 -12 -14 1 -10 -2
-15 -7 -12 -5 3 -14 -6 -21 -20 -14 -32 -30 -34 -23 -3 3 12 17 78 31 147 29
140 59 254 110 413 19 59 32 112 28 119 -4 6 -3 8 4 4 6 -4 17 15 28 46 34
105 117 296 179 415 35 67 60 125 57 129 -4 4 -1 4 6 0 11 -7 17 6 12 29 -1 6
2 7 6 3 10 -11 35 12 27 26 -3 6 -3 8 2 4 4 -4 17 -1 29 7 30 22 45 18 52 -11z
m-1638 -31 c-10 -2 -26 -2 -35 0 -10 3 -2 5 17 5 19 0 27 -2 18 -5z m399 -215
c-3 -8 -6 -5 -6 6 -1 11 2 17 5 13 3 -3 4 -12 1 -19z m1576 -995 c3 -5 -22 -8
-56 -9 -36 0 -53 3 -41 7 25 10 92 11 97 2z m1822 -3 c-11 -5 -27 -9 -35 -9
-9 0 -8 4 5 9 11 5 27 9 35 9 9 0 8 -4 -5 -9z m-160 -60 c-3 -5 -12 -10 -18
-10 -7 0 -6 4 3 10 19 12 23 12 15 0z m241 -67 c22 -29 16 -121 -11 -187 -13
-33 -22 -63 -19 -68 3 -5 0 -7 -8 -6 -7 2 -12 -5 -12 -14 1 -10 -2 -15 -7 -13
-11 7 -30 -30 -21 -40 4 -5 2 -5 -5 -2 -14 9 -55 -41 -46 -57 3 -6 3 -8 -2 -4
-11 10 -47 -11 -40 -23 4 -5 1 -8 -6 -7 -7 2 -13 -4 -14 -12 0 -8 -9 -15 -20
-15 -11 0 -20 -7 -20 -15 0 -8 -9 -15 -20 -15 -11 0 -20 -6 -20 -14 0 -8 -7
-16 -15 -18 -13 -4 -13 -3 0 6 19 13 1 14 -20 1 -8 -5 -15 -15 -15 -22 0 -7
-8 -12 -18 -12 -29 3 -163 -53 -141 -58 10 -3 0 -4 -23 -4 -24 1 -43 1 -43 1
2 0 62 216 63 227 1 9 4 15 8 12 8 -5 52 65 52 83 0 7 4 10 8 7 8 -5 33 33 34
51 0 6 7 10 15 10 8 1 14 7 12 14 -1 7 2 10 7 7 12 -8 33 18 23 29 -4 5 -2 5
5 1 12 -6 28 10 28 29 0 6 7 10 15 10 8 1 14 7 12 15 -2 8 0 12 3 8 12 -11 46
11 39 25 -4 7 -4 9 1 5 12 -11 47 11 39 25 -4 7 -4 9 1 5 11 -11 47 11 39 24
-4 7 -3 8 4 4 6 -4 24 0 39 8 38 21 83 20 99 -1z m-1401 -23 c-3 -5 -12 -10
-18 -10 -7 0 -6 4 3 10 19 12 23 12 15 0z m690 -360 c-3 -5 -14 -10 -23 -9
-14 0 -13 2 3 9 27 11 27 11 20 0z m-2490 -60 c-3 -5 -12 -10 -18 -10 -7 0 -6
4 3 10 19 12 23 12 15 0z m-75 -30 c-8 -5 -22 -9 -30 -9 -10 0 -8 3 5 9 27 12
43 12 25 0z m-90 -30 c-8 -5 -22 -9 -30 -9 -10 0 -8 3 5 9 27 12 43 12 25 0z
m-1285 -68 c-3 -3 -11 0 -18 7 -9 10 -8 11 6 5 10 -3 15 -9 12 -12z m1085 8
c-8 -5 -24 -9 -35 -9 -16 1 -16 2 5 9 35 11 48 11 30 0z m3185 0 c-3 -5 -12
-10 -18 -10 -7 0 -6 4 3 10 19 12 23 12 15 0z m-640 -30 c-3 -5 -12 -10 -18
-10 -7 0 -6 4 3 10 19 12 23 12 15 0z m-2682 -7 c-7 -2 -19 -2 -25 0 -7 3 -2
5 12 5 14 0 19 -2 13 -5z m2027 3 c0 -2 -8 -10 -17 -17 -16 -13 -17 -12 -4 4
13 16 21 21 21 13z m-2135 -26 c-11 -5 -33 -8 -50 -8 -29 1 -29 1 5 8 49 10
69 10 45 0z m-558 -26 c-3 -3 -12 -4 -19 -1 -8 3 -5 6 6 6 11 1 17 -2 13 -5z
m380 0 c-3 -3 -12 -4 -19 -1 -8 3 -5 6 6 6 11 1 17 -2 13 -5z m2848 -4 c-3 -5
-16 -10 -28 -9 -20 1 -20 2 3 9 14 4 26 8 28 9 2 1 0 -3 -3 -9z m-2972 -7
c-40 -2 -107 -2 -150 0 -43 1 -10 3 72 3 83 0 118 -2 78 -3z m1450 -30 c-13
-2 -33 -2 -45 0 -13 2 -3 4 22 4 25 0 35 -2 23 -4z m630 -70 c-7 -2 -19 -2
-25 0 -7 3 -2 5 12 5 14 0 19 -2 13 -5z m90 0 c-7 -2 -19 -2 -25 0 -7 3 -2 5
12 5 14 0 19 -2 13 -5z m784 1 c-3 -3 -12 -4 -19 -1 -8 3 -5 6 6 6 11 1 17 -2
13 -5z m476 -61 c-13 -2 -35 -2 -50 0 -16 2 -5 4 22 4 28 0 40 -2 28 -4z"/>
<path d="M1341 3799 c-24 -5 -69 -16 -99 -25 -42 -12 -52 -18 -41 -25 10 -8 9
-9 -7 -4 -29 8 -80 -15 -62 -28 9 -6 8 -7 -5 -3 -22 7 -98 -30 -94 -45 1 -7
-5 -14 -13 -16 -13 -4 -13 -3 0 6 8 6 11 11 5 11 -5 0 -21 -10 -35 -21 -14
-11 -18 -17 -10 -13 9 4 12 3 7 -2 -5 -5 -16 -9 -25 -9 -9 0 -17 -6 -17 -14 0
-8 -7 -16 -15 -18 -13 -4 -13 -3 0 6 8 6 10 11 4 11 -12 0 -41 -30 -36 -37 2
-3 0 -8 -4 -11 -4 -4 -4 -1 0 6 4 6 3 12 -2 12 -10 0 -28 -19 -34 -35 -1 -5
-6 -9 -11 -7 -14 4 -178 -161 -173 -175 3 -7 0 -12 -6 -10 -7 1 -12 -5 -13
-13 0 -8 -6 -15 -13 -15 -16 0 -43 -35 -37 -46 3 -4 0 -11 -6 -15 -8 -5 -10
-2 -5 7 4 8 1 5 -8 -5 -8 -10 -13 -23 -10 -28 3 -5 0 -7 -8 -6 -7 2 -12 -5
-12 -14 1 -10 -2 -16 -6 -13 -12 7 -41 -36 -33 -48 3 -6 2 -7 -3 -4 -13 8
-107 -141 -98 -155 5 -7 3 -8 -6 -3 -10 6 -12 4 -7 -9 4 -10 3 -15 -3 -11 -12
8 -43 -52 -34 -67 4 -6 3 -8 -3 -5 -13 8 -76 -130 -69 -150 3 -8 2 -12 -3 -8
-5 3 -21 -30 -35 -72 -68 -204 -91 -417 -62 -580 18 -103 53 -206 67 -198 5 4
6 -2 2 -11 -5 -13 -3 -15 7 -9 9 5 11 4 6 -4 -10 -16 41 -94 56 -85 6 4 8 3 5
-3 -9 -14 32 -65 45 -57 7 4 8 2 4 -4 -8 -13 28 -35 39 -24 5 4 5 2 1 -5 -7
-12 26 -36 38 -28 3 3 4 2 1 -2 -8 -10 34 -35 47 -27 6 4 8 3 5 -3 -8 -13 109
-67 129 -59 8 3 13 2 10 -3 -8 -13 72 -33 107 -27 23 4 26 4 12 -3 -33 -14
134 -33 290 -33 137 -1 207 6 390 39 68 12 85 18 70 24 -14 7 -11 7 11 3 52
-9 345 72 322 89 -9 6 -7 7 6 3 27 -9 181 44 164 57 -9 6 -7 7 6 3 25 -9 88
12 80 26 -4 7 -2 8 5 4 13 -8 83 12 77 22 -2 4 6 7 17 7 12 1 31 4 43 8 20 7
20 4 16 -80 -4 -81 -2 -91 21 -123 13 -19 29 -34 36 -32 7 1 10 -2 6 -8 -11
-18 48 -32 115 -27 68 5 144 33 133 50 -3 6 -1 7 5 3 14 -9 63 14 55 27 -3 6
-1 7 5 3 16 -10 54 12 46 26 -4 7 -3 8 4 4 13 -8 55 17 47 27 -3 4 -2 5 1 2
12 -8 45 16 38 28 -4 7 -4 9 1 5 11 -11 47 11 39 24 -4 6 -3 8 2 5 13 -7 39 9
39 24 0 7 10 14 22 15 23 4 24 0 38 -91 10 -66 56 -146 103 -179 32 -23 56
-31 102 -34 78 -6 159 6 139 20 -11 8 -10 8 5 4 25 -9 88 12 80 26 -5 7 -2 8
5 4 16 -10 73 13 64 27 -3 5 -1 7 5 3 14 -9 63 14 55 27 -3 6 -1 7 5 3 15 -9
55 18 44 29 -4 5 -1 5 5 1 14 -8 56 17 48 27 -3 4 -2 5 1 2 12 -8 45 16 38 27
-4 7 -2 8 5 4 15 -10 43 13 34 27 -4 6 -1 7 6 3 7 -5 21 0 32 10 10 9 21 15
24 12 2 -2 -7 -46 -21 -98 -13 -52 -22 -100 -19 -107 2 -8 0 -11 -5 -8 -22 14
-8 -36 14 -50 42 -28 140 1 172 50 9 13 13 29 9 35 -4 6 -1 9 7 8 7 -2 12 5
12 14 -1 10 3 16 10 15 6 -1 10 6 10 15 -1 10 2 15 7 12 9 -5 13 11 9 31 -1 5
2 7 6 2 10 -9 65 74 57 86 -3 6 -1 7 5 3 11 -7 17 7 12 29 -1 6 2 7 6 2 9 -9
45 43 38 55 -3 5 0 7 8 6 7 -2 12 5 12 14 -1 10 2 15 7 13 11 -7 30 30 21 40
-4 5 -2 5 5 1 11 -6 31 17 31 37 0 5 4 12 8 15 4 4 4 0 0 -8 -4 -8 -1 -6 8 4
8 10 13 23 9 29 -3 6 -1 7 5 3 13 -8 55 48 44 59 -4 5 -2 5 4 2 11 -6 48 37
49 56 0 4 5 7 10 7 18 1 84 73 78 84 -3 6 -3 8 1 4 4 -3 24 5 44 18 19 14 40
23 46 21 22 -6 49 -81 96 -272 59 -231 79 -283 132 -331 48 -43 87 -61 155
-69 77 -11 252 32 236 58 -3 5 -1 7 5 3 14 -9 63 14 55 27 -3 6 -1 7 5 3 16
-10 54 12 46 26 -4 7 -3 8 5 4 6 -4 32 8 60 28 27 20 50 36 53 36 2 0 5 -12 6
-27 3 -41 23 -84 35 -76 6 3 7 1 3 -5 -9 -15 31 -55 46 -46 6 4 8 3 5 -4 -20
-32 188 -55 278 -31 71 19 135 51 128 63 -3 6 -3 8 2 4 11 -11 47 11 39 24 -4
7 -3 8 4 4 15 -9 84 43 75 57 -3 5 -1 7 5 3 12 -7 54 42 46 55 -3 5 0 8 8 7 7
-2 12 5 12 14 -1 10 2 15 7 13 11 -7 59 87 75 150 23 85 12 267 -15 250 -5 -2
-8 3 -7 13 0 9 -5 16 -12 14 -8 -1 -11 2 -7 8 4 6 1 17 -5 25 -15 18 -34 20
-24 3 4 -7 3 -8 -5 -4 -6 4 -9 11 -6 16 10 17 -74 60 -163 84 -48 13 -134 31
-191 40 -95 15 -107 15 -128 0 -32 -21 -47 -62 -34 -92 8 -16 8 -29 1 -43 -6
-11 -8 -25 -4 -31 4 -7 3 -8 -5 -4 -13 9 -94 -151 -86 -172 3 -8 0 -10 -7 -6
-7 5 -9 0 -6 -14 4 -12 2 -20 -2 -17 -5 3 -19 -26 -31 -65 -13 -38 -27 -70
-32 -70 -4 0 -5 -4 -2 -10 3 -5 0 -7 -7 -5 -8 3 -22 -2 -33 -11 -11 -8 -14
-12 -6 -8 9 5 12 3 7 -5 -4 -6 -11 -9 -16 -6 -14 9 -51 -15 -44 -27 4 -6 3 -8
-3 -5 -6 4 -58 -16 -116 -44 -76 -36 -118 -50 -149 -50 -55 0 -87 4 -85 11 0
3 -11 28 -25 55 -26 51 -98 263 -98 289 0 31 -51 176 -60 171 -6 -4 -7 1 -3
11 4 12 3 15 -5 10 -8 -4 -10 -2 -6 8 3 8 -10 31 -31 55 -60 66 -140 76 -243
31 -24 -11 -41 -24 -38 -29 3 -5 -2 -8 -11 -7 -10 0 -18 -4 -18 -11 0 -6 -4
-15 -9 -20 -5 -5 -6 -3 -2 5 4 6 3 12 -3 12 -10 0 -26 -19 -26 -32 0 -5 -2 -7
-5 -6 -13 4 -50 -24 -44 -34 4 -6 3 -8 -3 -5 -5 4 -23 -8 -39 -25 -16 -17 -23
-27 -15 -23 10 5 12 4 7 -4 -4 -6 -11 -9 -16 -6 -10 6 -31 -18 -34 -40 -1 -8
-5 -14 -8 -13 -12 5 -59 -46 -54 -58 3 -7 -5 -20 -17 -31 -22 -18 -22 -18 -7
2 10 14 7 13 -8 -3 -12 -13 -19 -28 -16 -34 4 -6 2 -8 -4 -4 -6 3 -18 -4 -26
-16 -9 -12 -17 -20 -20 -17 -2 2 2 40 10 84 23 123 43 303 44 378 0 51 -4 69
-15 73 -29 11 -64 -6 -98 -49 -31 -38 -37 -53 -51 -152 -9 -60 -26 -160 -39
-220 -22 -106 -25 -112 -67 -154 -25 -23 -39 -39 -31 -35 9 5 12 3 7 -5 -4 -6
-11 -9 -16 -6 -11 7 -60 -34 -57 -48 1 -7 -5 -11 -14 -9 -9 1 -23 -5 -30 -15
-12 -14 -12 -16 0 -8 10 5 12 4 7 -4 -4 -6 -11 -9 -15 -6 -5 2 -17 -3 -27 -11
-10 -9 -12 -12 -4 -8 9 4 12 3 7 -2 -5 -5 -16 -9 -25 -9 -9 0 -17 -7 -17 -15
-1 -8 -7 -14 -13 -12 -18 3 -54 -17 -47 -27 2 -5 -3 -8 -13 -7 -9 0 -16 -4
-15 -11 2 -8 -4 -10 -14 -6 -12 5 -14 3 -8 -7 5 -9 4 -11 -3 -6 -6 4 -24 0
-39 -9 -16 -9 -19 -13 -8 -10 11 3 16 3 12 -2 -10 -9 -64 -15 -139 -15 -66 0
-90 3 -83 10 3 3 -3 15 -14 26 -29 33 -41 83 -41 176 0 102 20 186 91 379 27
74 49 144 47 155 -4 28 -52 49 -93 42 -20 -4 -44 -19 -59 -37 -24 -29 -26 -29
-50 -14 -39 26 -124 30 -191 10 -75 -21 -137 -53 -130 -65 4 -6 -1 -7 -11 -3
-11 4 -15 2 -11 -4 4 -6 -1 -10 -10 -9 -10 0 -18 -6 -18 -14 0 -8 -8 -14 -16
-12 -9 1 -23 -5 -30 -15 -12 -14 -12 -16 0 -8 10 6 12 4 7 -4 -5 -7 -14 -10
-21 -7 -8 3 -19 -3 -27 -12 -11 -13 -11 -14 1 -7 10 5 12 4 7 -4 -4 -6 -11 -9
-16 -6 -11 7 -32 -20 -22 -30 4 -5 2 -5 -4 -2 -14 8 -37 -17 -26 -28 4 -5 2
-5 -4 -2 -14 8 -37 -17 -26 -28 4 -5 2 -5 -5 -2 -13 8 -97 -88 -89 -102 4 -5
1 -13 -5 -17 -8 -5 -10 -2 -5 7 5 8 2 8 -6 -2 -7 -9 -29 -18 -48 -21 -47 -8
-151 -48 -146 -56 2 -4 -6 -8 -17 -8 -36 -2 -193 -61 -177 -66 8 -3 6 -4 -5
-2 -30 5 -66 -7 -58 -19 3 -6 1 -7 -5 -3 -6 4 -91 -13 -189 -37 -292 -73 -516
-97 -713 -78 -153 16 -226 34 -318 78 -42 20 -82 37 -89 36 -7 0 -11 4 -10 11
1 6 -4 10 -11 8 -8 -1 -11 2 -7 7 5 9 -27 34 -36 28 -2 -1 -3 0 -2 2 5 9 -39
60 -50 58 -6 -1 -11 7 -12 18 0 11 -5 19 -12 18 -8 -2 -10 4 -6 14 4 11 3 14
-6 9 -6 -4 -10 -4 -9 1 3 13 -13 54 -20 49 -4 -2 -7 6 -8 17 -1 12 -9 51 -19
87 -23 86 -24 275 -1 383 9 43 33 123 52 178 19 55 32 105 28 111 -4 6 -3 8 3
5 12 -8 56 81 47 95 -4 6 -3 8 3 5 10 -6 89 120 87 140 -1 7 3 11 10 10 6 -1
10 6 10 15 -1 10 3 16 10 15 6 -1 10 6 10 15 -1 10 2 16 6 15 13 -3 60 65 53
76 -3 6 -1 7 5 3 13 -8 35 28 24 39 -4 5 -2 5 4 2 14 -8 34 14 38 40 2 10 9
18 17 18 8 1 13 6 11 13 -1 7 1 11 5 10 10 -3 118 105 115 115 -1 4 1 6 5 5
12 -4 84 48 78 55 -3 4 -2 5 1 2 12 -8 45 16 38 27 -4 7 -3 8 4 4 15 -9 55 18
44 29 -4 5 -2 5 5 1 14 -7 64 13 58 24 -3 4 1 7 8 7 6 -1 50 11 97 27 69 23
104 29 187 30 56 1 100 -1 97 -6 -3 -4 -1 -8 4 -8 5 0 25 -11 45 -24 19 -13
39 -21 43 -18 4 4 4 2 1 -4 -7 -13 27 -67 37 -57 4 4 4 -1 0 -11 -6 -15 -4
-17 6 -11 9 5 11 4 6 -4 -11 -17 40 -90 70 -101 66 -26 121 6 108 63 -12 56
-36 107 -47 100 -5 -3 -7 -1 -4 5 9 14 -3 43 -14 36 -5 -3 -6 3 -2 12 4 12 3
15 -5 10 -7 -4 -10 -2 -6 7 3 8 -3 20 -12 28 -15 12 -17 12 -9 0 5 -10 4 -12
-4 -7 -6 4 -9 11 -7 15 9 13 -25 52 -42 49 -9 -2 -16 3 -15 9 4 17 -80 58
-145 72 -61 13 -167 13 -231 0z m-1 -19 c-14 -4 -34 -8 -45 -8 -16 0 -15 2 5
8 14 4 34 8 45 8 16 0 15 -2 -5 -8z m283 -7 c-7 -2 -19 -2 -25 0 -7 3 -2 5 12
5 14 0 19 -2 13 -5z m62 -31 c-3 -3 -11 0 -18 7 -9 10 -8 11 6 5 10 -3 15 -9
12 -12z m-600 -52 c-3 -5 -12 -10 -18 -10 -7 0 -6 4 3 10 19 12 23 12 15 0z
m753 -287 c-10 -2 -26 -2 -35 0 -10 3 -2 5 17 5 19 0 27 -2 18 -5z m2117 -943
c-3 -5 -12 -10 -18 -10 -7 0 -6 4 3 10 19 12 23 12 15 0z m42 -62 c-2 -13 -4
-3 -4 22 0 25 2 35 4 23 2 -13 2 -33 0 -45z m-887 -32 c0 -2 -8 -10 -17 -17
-16 -13 -17 -12 -4 4 13 16 21 21 21 13z m2558 -3 c-10 -2 -28 -2 -40 0 -13 2
-5 4 17 4 22 1 32 -1 23 -4z m-2818 -23 c-8 -5 -22 -9 -30 -9 -10 0 -8 3 5 9
27 12 43 12 25 0z m180 0 c8 -5 11 -10 5 -10 -5 0 -17 5 -25 10 -8 5 -10 10
-5 10 6 0 17 -5 25 -10z m1390 0 c-8 -5 -22 -9 -30 -9 -10 0 -8 3 5 9 27 12
43 12 25 0z m150 0 c8 -5 11 -10 5 -10 -5 0 -17 5 -25 10 -8 5 -10 10 -5 10 6
0 17 -5 25 -10z m1257 -6 c-3 -3 -12 -4 -19 -1 -8 3 -5 6 6 6 11 1 17 -2 13
-5z m-1216 -31 c13 -16 12 -17 -3 -4 -17 13 -22 21 -14 21 2 0 10 -8 17 -17z
m1294 -1 c-3 -3 -11 0 -18 7 -9 10 -8 11 6 5 10 -3 15 -9 12 -12z m60 -30 c-3
-3 -11 0 -18 7 -9 10 -8 11 6 5 10 -3 15 -9 12 -12z m-218 -36 c12 -1 19 -3
17 -5 -5 -6 79 -56 89 -53 4 1 6 -1 5 -5 -3 -12 35 -93 41 -88 3 1 4 -34 1
-79 -5 -68 -12 -92 -37 -138 -18 -31 -29 -59 -25 -63 4 -5 2 -5 -4 -2 -11 6
-29 -19 -26 -36 1 -4 -3 -6 -10 -5 -7 2 -12 -3 -13 -9 0 -7 -4 -13 -10 -14
-21 -2 -45 -20 -40 -30 4 -5 3 -9 -2 -8 -19 3 -34 -2 -28 -10 3 -5 0 -13 -6
-17 -8 -4 -9 -3 -5 4 10 16 1 15 -36 -4 -21 -11 -44 -14 -77 -10 -25 3 -54 7
-63 8 -9 1 -15 4 -13 6 2 3 -5 16 -15 30 -30 38 -27 124 10 234 17 49 27 94
24 100 -4 6 -2 8 3 5 13 -8 67 109 57 125 -4 6 -3 8 3 5 6 -4 18 11 27 34 l17
41 47 -8 c26 -4 57 -8 69 -8z m-2809 -3 c-1 -5 6 -21 16 -36 19 -28 19 -29 -4
-80 -12 -29 -23 -60 -23 -69 -1 -9 -6 -16 -12 -15 -5 1 -9 -6 -9 -15 1 -10 -3
-16 -10 -15 -6 1 -10 -6 -10 -15 1 -10 -2 -16 -6 -13 -10 6 -52 -44 -45 -55 2
-4 -5 -16 -18 -26 l-22 -19 20 25 c11 14 1 7 -22 -14 -23 -21 -41 -44 -40 -50
1 -5 -7 -10 -18 -11 -11 0 -20 -6 -20 -12 0 -7 -2 -12 -5 -11 -11 3 -50 -24
-45 -31 2 -5 -3 -8 -12 -7 -10 0 -18 -5 -18 -13 0 -8 -7 -16 -15 -18 -13 -4
-13 -3 0 6 28 20 1 11 -32 -10 -18 -12 -24 -18 -13 -15 11 4 16 4 12 -1 -5 -4
-20 -9 -35 -10 -84 -9 -77 -12 -75 33 2 47 43 144 98 229 20 33 38 66 40 75 1
8 7 15 13 15 11 0 49 44 51 60 0 6 7 10 14 10 6 1 11 7 9 15 -2 8 0 12 4 8 10
-11 35 12 27 25 -3 6 -1 7 6 3 15 -10 43 13 34 27 -3 6 -1 7 5 3 6 -4 22 -1
34 6 13 7 46 15 73 19 28 3 51 7 53 8 1 0 1 -2 0 -6z m-591 -289 c-3 -3 -12
-4 -19 -1 -8 3 -5 6 6 6 11 1 17 -2 13 -5z m-440 -150 c-3 -3 -12 -4 -19 -1
-8 3 -5 6 6 6 11 1 17 -2 13 -5z m-1232 -32 c-3 -3 -11 0 -18 7 -9 10 -8 11 6
5 10 -3 15 -9 12 -12z m1145 8 c-8 -5 -22 -9 -30 -9 -10 0 -8 3 5 9 27 12 43
12 25 0z m3335 0 c-3 -5 -12 -10 -18 -10 -7 0 -6 4 3 10 19 12 23 12 15 0z
m-4420 -38 c-3 -3 -11 0 -18 7 -9 10 -8 11 6 5 10 -3 15 -9 12 -12z m4360 8
c-3 -5 -12 -10 -18 -10 -7 0 -6 4 3 10 19 12 23 12 15 0z m-3412 -7 c-7 -2
-19 -2 -25 0 -7 3 -2 5 12 5 14 0 19 -2 13 -5z m-857 -31 c-10 -2 -22 0 -28 6
-6 6 0 7 19 4 21 -5 23 -7 9 -10z m4209 8 c-3 -5 -12 -10 -18 -10 -7 0 -6 4 3
10 19 12 23 12 15 0z m-3487 -7 c-10 -2 -26 -2 -35 0 -10 3 -2 5 17 5 19 0 27
-2 18 -5z m-611 -19 c-3 -3 -12 -4 -19 -1 -8 3 -5 6 6 6 11 1 17 -2 13 -5z
m470 0 c-3 -3 -12 -4 -19 -1 -8 3 -5 6 6 6 11 1 17 -2 13 -5z m1113 -4 c-8 -5
-19 -10 -25 -10 -5 0 -3 5 5 10 8 5 20 10 25 10 6 0 3 -5 -5 -10z m2409 -6
c10 -9 -35 -3 -49 6 -11 8 -7 9 15 4 17 -4 32 -8 34 -10z m-3891 -1 c-16 -2
-40 -2 -55 0 -16 2 -3 4 27 4 30 0 43 -2 28 -4z m300 0 c-16 -2 -40 -2 -55 0
-16 2 -3 4 27 4 30 0 43 -2 28 -4z m4307 -23 c-3 -5 -27 -9 -53 -8 l-47 1 50
7 c28 4 51 8 53 8 2 1 0 -2 -3 -8z m-2399 -68 c-27 -2 -52 0 -57 5 -4 4 18 6
49 3 l57 -5 -49 -3z m-1869 -38 c-3 -3 -12 -4 -19 -1 -8 3 -5 6 6 6 11 1 17
-2 13 -5z m4120 0 c-3 -3 -12 -4 -19 -1 -8 3 -5 6 6 6 11 1 17 -2 13 -5z m130
0 c-3 -3 -12 -4 -19 -1 -8 3 -5 6 6 6 11 1 17 -2 13 -5z m-1933 -70 c3 -8 2
-12 -4 -9 -6 3 -10 10 -10 16 0 14 7 11 14 -7z"/>
<path d="M6359 2509 c-13 -11 -18 -17 -10 -13 9 5 12 3 7 -5 -4 -6 -11 -9 -16
-6 -5 3 -22 -8 -38 -24 -28 -29 -29 -35 -36 -148 -31 -540 -130 -1158 -273
-1703 -19 -74 -37 -144 -40 -156 -7 -32 22 -54 73 -54 67 0 99 21 118 77 45
138 134 562 187 891 l32 202 46 0 c102 0 287 42 275 62 -5 7 -3 8 5 4 16 -10
73 13 64 27 -3 5 -1 7 5 3 14 -9 63 14 55 27 -3 6 -1 7 5 3 15 -9 55 18 44 29
-4 5 -1 5 6 1 17 -10 125 71 116 87 -4 7 -3 9 1 4 10 -9 67 42 59 54 -2 4 1
11 7 15 8 5 10 2 5 -7 -4 -8 2 -3 13 10 12 12 19 27 16 31 -3 5 0 12 6 16 8 5
10 2 5 -7 -4 -8 0 -5 9 6 37 44 77 146 82 208 5 65 -15 144 -36 140 -5 -2 -8
3 -5 11 7 19 -50 64 -92 72 -20 4 -61 4 -91 1 -60 -6 -188 -61 -178 -77 4 -6
-1 -7 -11 -3 -11 4 -15 2 -11 -4 4 -6 -1 -10 -10 -9 -10 0 -18 -5 -18 -13 0
-8 -7 -16 -15 -18 -13 -4 -13 -3 0 6 8 6 11 11 6 11 -11 0 -153 -107 -163
-123 -4 -6 -1 -7 8 -2 8 5 11 4 6 -1 -5 -5 -12 -9 -15 -9 -15 0 -32 -17 -27
-26 3 -5 0 -6 -8 -3 -15 5 -90 -73 -82 -85 2 -4 -5 -8 -16 -8 -20 -2 -21 16
-4 132 14 89 24 359 14 376 -13 25 -51 24 -80 -2z m64 4 c-7 -2 -21 -2 -30 0
-10 3 -4 5 12 5 17 0 24 -2 18 -5z m677 -173 c8 -5 11 -10 5 -10 -5 0 -17 5
-25 10 -8 5 -10 10 -5 10 6 0 17 -5 25 -10z m-265 -30 c-3 -5 -12 -10 -18 -10
-7 0 -6 4 3 10 19 12 23 12 15 0z m-408 -32 c-3 -7 -5 -2 -5 12 0 14 2 19 5
13 2 -7 2 -19 0 -25z m541 -80 c11 -14 21 -139 11 -132 -9 5 -30 -46 -23 -57
3 -5 0 -8 -8 -7 -7 2 -12 -5 -12 -14 1 -10 -3 -16 -9 -15 -6 1 -11 -3 -12 -10
0 -6 -4 -15 -9 -20 -6 -5 -6 -2 -1 7 4 8 -6 2 -23 -14 -17 -16 -30 -33 -29
-39 1 -5 -6 -11 -17 -12 -10 -2 -24 -9 -30 -16 -8 -9 -7 -10 4 -4 9 5 12 4 7
-1 -5 -5 -16 -9 -25 -9 -9 0 -17 -6 -17 -14 0 -8 -7 -16 -15 -18 -13 -4 -13
-3 0 6 19 14 5 14 -21 0 -11 -5 -17 -14 -14 -19 4 -6 -1 -7 -11 -3 -13 5 -15
3 -9 -7 5 -8 4 -11 -2 -7 -6 4 -25 2 -43 -4 -24 -9 -29 -14 -18 -21 10 -8 9
-9 -3 -5 -9 3 -51 -5 -93 -19 -42 -13 -87 -25 -99 -25 -18 -1 -16 -3 8 -10 24
-7 21 -7 -15 -3 -24 3 -46 7 -48 9 -2 2 8 23 22 48 14 24 23 47 18 52 -4 4 -1
5 6 1 11 -7 17 5 13 27 -1 5 3 6 8 3 9 -6 48 40 50 59 1 6 7 10 14 10 6 1 11
6 9 13 -1 7 1 11 5 10 11 -2 148 135 145 144 -1 5 1 7 6 6 16 -3 41 15 35 26
-3 6 -3 8 2 4 11 -11 47 11 39 24 -4 7 -3 8 4 4 15 -9 55 18 44 29 -4 5 -2 5
5 1 7 -4 29 2 50 13 44 23 86 27 101 9z"/>
<path d="M7473 2519 c-23 -6 -47 -17 -54 -26 -7 -8 -28 -79 -47 -157 -94 -399
-95 -405 -96 -536 -1 -122 13 -198 35 -184 5 3 6 -1 3 -9 -6 -18 21 -41 37
-31 8 4 9 3 5 -4 -10 -17 71 -35 126 -28 62 9 79 16 71 29 -4 6 -1 7 6 3 16
-10 73 13 64 27 -3 6 -1 7 5 3 13 -8 55 17 47 27 -3 4 -2 5 1 2 12 -8 45 16
38 28 -4 7 -4 9 1 5 9 -9 77 41 70 52 -3 5 0 12 6 16 8 5 9 3 4 -7 -4 -8 6 -1
23 15 17 16 29 34 25 39 -3 6 -1 7 5 3 6 -3 22 8 36 26 14 18 27 30 29 28 2
-3 -14 -94 -35 -204 l-39 -199 -47 -44 c-26 -24 -41 -41 -33 -37 10 5 12 3 7
-5 -5 -7 -11 -10 -14 -7 -9 10 -32 -16 -25 -28 3 -6 3 -8 -2 -4 -11 11 -36
-12 -28 -26 3 -6 3 -8 -2 -4 -11 11 -36 -12 -28 -25 3 -5 1 -7 -4 -4 -14 9
-86 -71 -77 -85 4 -6 3 -8 -4 -4 -13 8 -106 -119 -97 -134 4 -6 1 -9 -7 -8 -7
2 -12 -5 -12 -14 1 -10 -1 -16 -5 -13 -11 6 -43 -54 -35 -67 5 -7 3 -8 -6 -3
-10 6 -12 4 -7 -9 4 -9 3 -15 -1 -12 -12 7 -44 -63 -36 -76 4 -6 2 -8 -3 -5
-14 9 -37 -48 -27 -64 4 -8 3 -10 -4 -5 -19 12 -56 -129 -57 -214 0 -77 19
-145 38 -133 6 4 7 1 3 -6 -19 -29 79 -90 144 -91 51 0 112 19 104 32 -4 6 -3
8 4 4 14 -8 74 43 65 56 -3 7 -1 8 5 4 13 -8 35 28 24 39 -4 5 -2 5 5 1 15 -8
75 92 68 112 -3 7 -1 11 4 8 12 -8 64 112 57 130 -3 8 -2 13 3 9 19 -11 101
270 166 564 23 103 39 158 50 163 8 5 13 14 9 19 -3 5 -1 8 4 7 16 -5 73 42
66 54 -4 7 -2 8 5 4 15 -10 43 13 34 27 -3 6 -1 7 6 3 12 -8 94 47 86 57 -3 4
-2 5 1 2 12 -8 45 16 38 27 -4 6 -3 8 3 5 11 -7 95 47 88 56 -3 4 -2 5 1 2 12
-8 45 16 38 28 -4 7 -4 9 1 5 12 -11 47 11 39 25 -4 7 -4 9 1 5 11 -11 47 11
39 24 -4 7 -2 8 5 4 15 -10 43 13 34 28 -3 6 -3 8 2 4 11 -11 47 11 39 24 -4
6 -3 8 4 4 14 -8 42 20 42 43 0 28 -21 41 -67 41 -36 0 -54 -8 -98 -41 -30
-23 -52 -46 -48 -52 3 -6 1 -7 -5 -3 -15 9 -64 -23 -55 -37 3 -5 2 -7 -4 -4
-6 4 -19 -1 -29 -9 -10 -9 -12 -12 -4 -8 9 4 12 3 7 -2 -5 -5 -16 -9 -25 -9
-9 0 -17 -6 -17 -14 0 -8 -7 -16 -15 -18 -13 -4 -13 -3 0 6 8 6 11 11 7 11 -4
0 -34 -19 -65 -41 -59 -43 -89 -69 -63 -54 9 5 12 4 7 -3 -4 -6 -13 -9 -20 -6
-7 3 -19 -3 -27 -12 -12 -16 -12 -17 1 -9 8 4 12 4 7 0 -4 -5 -18 -10 -30 -12
l-22 -3 52 312 c29 172 52 323 53 335 1 57 -103 54 -158 -5 -18 -19 -31 -41
-28 -48 3 -7 0 -16 -6 -20 -7 -4 -8 -3 -4 4 4 7 5 12 2 12 -11 0 -37 -61 -30
-72 4 -7 3 -8 -4 -4 -14 8 -36 -30 -26 -46 4 -7 3 -8 -4 -4 -13 8 -45 -47 -34
-59 4 -5 1 -5 -5 -1 -12 6 -18 -5 -14 -27 0 -4 -5 -6 -11 -5 -7 2 -13 -5 -13
-14 0 -9 -4 -20 -9 -25 -5 -5 -6 -2 -1 7 5 8 6 13 4 10 -3 -3 -38 -41 -79 -84
-41 -44 -69 -76 -61 -71 10 5 12 4 7 -4 -4 -6 -11 -9 -16 -6 -11 7 -60 -33
-57 -47 1 -6 -5 -13 -13 -15 -13 -4 -13 -3 0 6 24 17 2 13 -25 -5 -14 -9 -23
-19 -20 -23 2 -4 -1 -8 -8 -9 -7 -1 -26 -4 -44 -8 -31 -6 -32 -5 -38 40 -13
84 12 249 81 544 25 106 44 202 42 215 -2 17 -10 22 -30 22 -14 -1 -24 3 -22
7 6 9 3 9 -53 -3z m-23 -23 c0 -2 -7 -7 -16 -10 -8 -3 -12 -2 -9 4 6 10 25 14
25 6z m617 -222 c-3 -3 -12 -4 -19 -1 -8 3 -5 6 6 6 11 1 17 -2 13 -5z m-277
-357 c0 -2 -10 -12 -22 -23 l-23 -19 19 23 c18 21 26 27 26 19z m778 -4 c-16
-2 -40 -2 -55 0 -16 2 -3 4 27 4 30 0 43 -2 28 -4z m-1281 -75 c-3 -8 -6 -5
-6 6 -1 11 2 17 5 13 3 -3 4 -12 1 -19z m228 -158 c-3 -5 -16 -10 -28 -9 -20
1 -20 2 3 9 14 4 26 8 28 9 2 1 0 -3 -3 -9z m135 -443 c0 -2 -12 -14 -27 -28
l-28 -24 24 28 c23 25 31 32 31 24z m119 -99 c-68 -249 -149 -473 -200 -553
-17 -27 -32 -56 -34 -65 -1 -8 -6 -15 -11 -16 -5 0 -17 -4 -26 -8 -10 -5 -26
-5 -35 0 -10 4 -20 7 -23 6 -15 -2 -10 143 6 191 19 59 77 178 106 219 11 16
16 34 12 40 -4 7 -4 10 1 6 10 -10 68 70 60 83 -4 5 -2 8 4 7 13 -4 62 63 54
75 -3 6 -1 7 4 4 11 -7 49 42 45 56 -1 5 2 6 7 3 5 -3 14 1 21 9 25 31 28 13
9 -57z m-276 -665 c-7 -2 -19 -2 -25 0 -7 3 -2 5 12 5 14 0 19 -2 13 -5z
m-132 -110 c13 -16 12 -17 -3 -4 -17 13 -22 21 -14 21 2 0 10 -8 17 -17z"/>
</g>
</svg>
